<mxfile host="app.diagrams.net" modified="2024-05-03T16:34:20.326Z" agent="Mozilla/5.0 (Windows NT 10.0; Win64; x64) AppleWebKit/537.36 (KHTML, like Gecko) Chrome/124.0.0.0 Safari/537.36 Edg/124.0.0.0" etag="12x5agfRPkhNAHZX_YWX" version="24.3.1" type="google">
  <diagram name="PÃ¡gina-1" id="Nr4L_uDCZGbhjKQfmc-h">
    <mxGraphModel grid="1" page="1" gridSize="10" guides="1" tooltips="1" connect="1" arrows="1" fold="1" pageScale="1" pageWidth="827" pageHeight="1169" math="0" shadow="0">
      <root>
        <mxCell id="0" />
        <mxCell id="1" parent="0" />
        <mxCell id="CNzCqum64-IxNHnGtIyT-3" value="" style="edgeStyle=orthogonalEdgeStyle;rounded=0;orthogonalLoop=1;jettySize=auto;html=1;" edge="1" parent="1" source="CNzCqum64-IxNHnGtIyT-1" target="CNzCqum64-IxNHnGtIyT-2">
          <mxGeometry relative="1" as="geometry" />
        </mxCell>
        <mxCell id="CNzCqum64-IxNHnGtIyT-1" value="INICIO" style="ellipse;whiteSpace=wrap;html=1;" vertex="1" parent="1">
          <mxGeometry x="310" y="30" width="80" height="80" as="geometry" />
        </mxCell>
        <mxCell id="CNzCqum64-IxNHnGtIyT-5" value="" style="edgeStyle=orthogonalEdgeStyle;rounded=0;orthogonalLoop=1;jettySize=auto;html=1;" edge="1" parent="1" source="CNzCqum64-IxNHnGtIyT-2" target="CNzCqum64-IxNHnGtIyT-4">
          <mxGeometry relative="1" as="geometry" />
        </mxCell>
        <mxCell id="CNzCqum64-IxNHnGtIyT-2" value="INPUT&lt;div&gt;s&lt;/div&gt;" style="shape=parallelogram;perimeter=parallelogramPerimeter;whiteSpace=wrap;html=1;fixedSize=1;" vertex="1" parent="1">
          <mxGeometry x="290" y="140" width="120" height="60" as="geometry" />
        </mxCell>
        <mxCell id="CNzCqum64-IxNHnGtIyT-7" value="" style="edgeStyle=orthogonalEdgeStyle;rounded=0;orthogonalLoop=1;jettySize=auto;html=1;" edge="1" parent="1" source="CNzCqum64-IxNHnGtIyT-4" target="CNzCqum64-IxNHnGtIyT-6">
          <mxGeometry relative="1" as="geometry" />
        </mxCell>
        <mxCell id="CNzCqum64-IxNHnGtIyT-4" value="quantity = 0&lt;div&gt;second = 0&lt;/div&gt;&lt;div&gt;i = 0&lt;/div&gt;" style="whiteSpace=wrap;html=1;" vertex="1" parent="1">
          <mxGeometry x="290" y="230" width="120" height="60" as="geometry" />
        </mxCell>
        <mxCell id="CNzCqum64-IxNHnGtIyT-9" value="" style="edgeStyle=orthogonalEdgeStyle;rounded=0;orthogonalLoop=1;jettySize=auto;html=1;" edge="1" parent="1" source="CNzCqum64-IxNHnGtIyT-6" target="CNzCqum64-IxNHnGtIyT-8">
          <mxGeometry relative="1" as="geometry" />
        </mxCell>
        <mxCell id="CNzCqum64-IxNHnGtIyT-20" style="edgeStyle=orthogonalEdgeStyle;rounded=0;orthogonalLoop=1;jettySize=auto;html=1;exitX=0;exitY=0.5;exitDx=0;exitDy=0;" edge="1" parent="1" source="CNzCqum64-IxNHnGtIyT-6">
          <mxGeometry relative="1" as="geometry">
            <mxPoint x="350" y="570" as="targetPoint" />
            <Array as="points">
              <mxPoint x="270" y="370" />
              <mxPoint x="270" y="570" />
            </Array>
          </mxGeometry>
        </mxCell>
        <mxCell id="CNzCqum64-IxNHnGtIyT-6" value="i &amp;lt;= s.size()" style="rhombus;whiteSpace=wrap;html=1;" vertex="1" parent="1">
          <mxGeometry x="310" y="330" width="80" height="80" as="geometry" />
        </mxCell>
        <mxCell id="CNzCqum64-IxNHnGtIyT-11" value="" style="edgeStyle=orthogonalEdgeStyle;rounded=0;orthogonalLoop=1;jettySize=auto;html=1;" edge="1" parent="1" source="CNzCqum64-IxNHnGtIyT-8" target="CNzCqum64-IxNHnGtIyT-10">
          <mxGeometry relative="1" as="geometry" />
        </mxCell>
        <mxCell id="CNzCqum64-IxNHnGtIyT-24" value="" style="edgeStyle=orthogonalEdgeStyle;rounded=0;orthogonalLoop=1;jettySize=auto;html=1;" edge="1" parent="1" source="CNzCqum64-IxNHnGtIyT-8" target="CNzCqum64-IxNHnGtIyT-23">
          <mxGeometry relative="1" as="geometry" />
        </mxCell>
        <mxCell id="CNzCqum64-IxNHnGtIyT-8" value="s [i]== &#39; f &#39;" style="rhombus;whiteSpace=wrap;html=1;" vertex="1" parent="1">
          <mxGeometry x="310" y="450" width="80" height="80" as="geometry" />
        </mxCell>
        <mxCell id="CNzCqum64-IxNHnGtIyT-14" value="" style="edgeStyle=orthogonalEdgeStyle;rounded=0;orthogonalLoop=1;jettySize=auto;html=1;" edge="1" parent="1" source="CNzCqum64-IxNHnGtIyT-10" target="CNzCqum64-IxNHnGtIyT-13">
          <mxGeometry relative="1" as="geometry" />
        </mxCell>
        <mxCell id="CNzCqum64-IxNHnGtIyT-10" value="second = i" style="whiteSpace=wrap;html=1;" vertex="1" parent="1">
          <mxGeometry x="440" y="470" width="80" height="40" as="geometry" />
        </mxCell>
        <mxCell id="CNzCqum64-IxNHnGtIyT-12" value="SI" style="text;html=1;align=center;verticalAlign=middle;resizable=0;points=[];autosize=1;strokeColor=none;fillColor=none;" vertex="1" parent="1">
          <mxGeometry x="390" y="460" width="30" height="30" as="geometry" />
        </mxCell>
        <mxCell id="CNzCqum64-IxNHnGtIyT-16" value="" style="edgeStyle=orthogonalEdgeStyle;rounded=0;orthogonalLoop=1;jettySize=auto;html=1;" edge="1" parent="1" source="CNzCqum64-IxNHnGtIyT-13" target="CNzCqum64-IxNHnGtIyT-15">
          <mxGeometry relative="1" as="geometry" />
        </mxCell>
        <mxCell id="CNzCqum64-IxNHnGtIyT-13" value="++quantity" style="whiteSpace=wrap;html=1;" vertex="1" parent="1">
          <mxGeometry x="550" y="470" width="80" height="40" as="geometry" />
        </mxCell>
        <mxCell id="CNzCqum64-IxNHnGtIyT-18" style="edgeStyle=orthogonalEdgeStyle;rounded=0;orthogonalLoop=1;jettySize=auto;html=1;entryX=1;entryY=0.5;entryDx=0;entryDy=0;" edge="1" parent="1" source="CNzCqum64-IxNHnGtIyT-15" target="CNzCqum64-IxNHnGtIyT-6">
          <mxGeometry relative="1" as="geometry">
            <Array as="points">
              <mxPoint x="590" y="370" />
            </Array>
          </mxGeometry>
        </mxCell>
        <mxCell id="CNzCqum64-IxNHnGtIyT-15" value="++i" style="whiteSpace=wrap;html=1;" vertex="1" parent="1">
          <mxGeometry x="570" y="408" width="40" height="40" as="geometry" />
        </mxCell>
        <mxCell id="CNzCqum64-IxNHnGtIyT-19" value="SI" style="text;html=1;align=center;verticalAlign=middle;resizable=0;points=[];autosize=1;strokeColor=none;fillColor=none;" vertex="1" parent="1">
          <mxGeometry x="360" y="413" width="30" height="30" as="geometry" />
        </mxCell>
        <mxCell id="CNzCqum64-IxNHnGtIyT-21" value="NO" style="text;html=1;align=center;verticalAlign=middle;resizable=0;points=[];autosize=1;strokeColor=none;fillColor=none;" vertex="1" parent="1">
          <mxGeometry x="280" y="370" width="40" height="30" as="geometry" />
        </mxCell>
        <mxCell id="CNzCqum64-IxNHnGtIyT-27" value="" style="edgeStyle=orthogonalEdgeStyle;rounded=0;orthogonalLoop=1;jettySize=auto;html=1;" edge="1" parent="1" source="CNzCqum64-IxNHnGtIyT-23" target="CNzCqum64-IxNHnGtIyT-26">
          <mxGeometry relative="1" as="geometry" />
        </mxCell>
        <mxCell id="CNzCqum64-IxNHnGtIyT-31" value="" style="edgeStyle=orthogonalEdgeStyle;rounded=0;orthogonalLoop=1;jettySize=auto;html=1;" edge="1" parent="1" source="CNzCqum64-IxNHnGtIyT-23" target="CNzCqum64-IxNHnGtIyT-30">
          <mxGeometry relative="1" as="geometry" />
        </mxCell>
        <mxCell id="CNzCqum64-IxNHnGtIyT-23" value="quantity=0" style="rhombus;whiteSpace=wrap;html=1;" vertex="1" parent="1">
          <mxGeometry x="310" y="610" width="80" height="80" as="geometry" />
        </mxCell>
        <mxCell id="CNzCqum64-IxNHnGtIyT-25" value="NO" style="text;html=1;align=center;verticalAlign=middle;resizable=0;points=[];autosize=1;strokeColor=none;fillColor=none;" vertex="1" parent="1">
          <mxGeometry x="350" y="530" width="40" height="30" as="geometry" />
        </mxCell>
        <mxCell id="CNzCqum64-IxNHnGtIyT-29" value="" style="edgeStyle=orthogonalEdgeStyle;rounded=0;orthogonalLoop=1;jettySize=auto;html=1;" edge="1" parent="1" source="CNzCqum64-IxNHnGtIyT-26" target="CNzCqum64-IxNHnGtIyT-28">
          <mxGeometry relative="1" as="geometry" />
        </mxCell>
        <mxCell id="CNzCqum64-IxNHnGtIyT-33" value="" style="edgeStyle=orthogonalEdgeStyle;rounded=0;orthogonalLoop=1;jettySize=auto;html=1;" edge="1" parent="1" source="CNzCqum64-IxNHnGtIyT-26" target="CNzCqum64-IxNHnGtIyT-32">
          <mxGeometry relative="1" as="geometry" />
        </mxCell>
        <mxCell id="CNzCqum64-IxNHnGtIyT-26" value="quantity=1" style="rhombus;whiteSpace=wrap;html=1;" vertex="1" parent="1">
          <mxGeometry x="310" y="730" width="80" height="80" as="geometry" />
        </mxCell>
        <mxCell id="CNzCqum64-IxNHnGtIyT-35" value="" style="edgeStyle=orthogonalEdgeStyle;rounded=0;orthogonalLoop=1;jettySize=auto;html=1;" edge="1" parent="1" source="CNzCqum64-IxNHnGtIyT-28" target="CNzCqum64-IxNHnGtIyT-34">
          <mxGeometry relative="1" as="geometry" />
        </mxCell>
        <mxCell id="CNzCqum64-IxNHnGtIyT-49" value="" style="edgeStyle=orthogonalEdgeStyle;rounded=0;orthogonalLoop=1;jettySize=auto;html=1;" edge="1" parent="1" source="CNzCqum64-IxNHnGtIyT-28" target="CNzCqum64-IxNHnGtIyT-48">
          <mxGeometry relative="1" as="geometry" />
        </mxCell>
        <mxCell id="CNzCqum64-IxNHnGtIyT-28" value="quantity=2" style="rhombus;whiteSpace=wrap;html=1;" vertex="1" parent="1">
          <mxGeometry x="310" y="840" width="80" height="80" as="geometry" />
        </mxCell>
        <mxCell id="CNzCqum64-IxNHnGtIyT-43" value="" style="edgeStyle=orthogonalEdgeStyle;rounded=0;orthogonalLoop=1;jettySize=auto;html=1;" edge="1" parent="1" source="CNzCqum64-IxNHnGtIyT-30" target="CNzCqum64-IxNHnGtIyT-42">
          <mxGeometry relative="1" as="geometry" />
        </mxCell>
        <mxCell id="CNzCqum64-IxNHnGtIyT-30" value="OUTPUT&amp;nbsp;&lt;div&gt;-2&lt;/div&gt;" style="shape=parallelogram;perimeter=parallelogramPerimeter;whiteSpace=wrap;html=1;fixedSize=1;" vertex="1" parent="1">
          <mxGeometry x="420" y="620" width="120" height="60" as="geometry" />
        </mxCell>
        <mxCell id="CNzCqum64-IxNHnGtIyT-45" value="" style="edgeStyle=orthogonalEdgeStyle;rounded=0;orthogonalLoop=1;jettySize=auto;html=1;" edge="1" parent="1" source="CNzCqum64-IxNHnGtIyT-32" target="CNzCqum64-IxNHnGtIyT-44">
          <mxGeometry relative="1" as="geometry" />
        </mxCell>
        <mxCell id="CNzCqum64-IxNHnGtIyT-32" value="OUTPUT&lt;div&gt;-1&lt;/div&gt;" style="shape=parallelogram;perimeter=parallelogramPerimeter;whiteSpace=wrap;html=1;fixedSize=1;" vertex="1" parent="1">
          <mxGeometry x="420" y="740" width="120" height="60" as="geometry" />
        </mxCell>
        <mxCell id="CNzCqum64-IxNHnGtIyT-47" value="" style="edgeStyle=orthogonalEdgeStyle;rounded=0;orthogonalLoop=1;jettySize=auto;html=1;" edge="1" parent="1" source="CNzCqum64-IxNHnGtIyT-34" target="CNzCqum64-IxNHnGtIyT-46">
          <mxGeometry relative="1" as="geometry" />
        </mxCell>
        <mxCell id="CNzCqum64-IxNHnGtIyT-34" value="OUTPUT&lt;div&gt;second&lt;/div&gt;" style="shape=parallelogram;perimeter=parallelogramPerimeter;whiteSpace=wrap;html=1;fixedSize=1;" vertex="1" parent="1">
          <mxGeometry x="410" y="850" width="120" height="60" as="geometry" />
        </mxCell>
        <mxCell id="CNzCqum64-IxNHnGtIyT-36" value="SI" style="text;html=1;align=center;verticalAlign=middle;resizable=0;points=[];autosize=1;strokeColor=none;fillColor=none;" vertex="1" parent="1">
          <mxGeometry x="385" y="618" width="30" height="30" as="geometry" />
        </mxCell>
        <mxCell id="CNzCqum64-IxNHnGtIyT-37" value="SI" style="text;html=1;align=center;verticalAlign=middle;resizable=0;points=[];autosize=1;strokeColor=none;fillColor=none;" vertex="1" parent="1">
          <mxGeometry x="375" y="738" width="30" height="30" as="geometry" />
        </mxCell>
        <mxCell id="CNzCqum64-IxNHnGtIyT-39" value="SI" style="text;html=1;align=center;verticalAlign=middle;resizable=0;points=[];autosize=1;strokeColor=none;fillColor=none;" vertex="1" parent="1">
          <mxGeometry x="375" y="848" width="30" height="30" as="geometry" />
        </mxCell>
        <mxCell id="CNzCqum64-IxNHnGtIyT-40" value="NO" style="text;html=1;align=center;verticalAlign=middle;resizable=0;points=[];autosize=1;strokeColor=none;fillColor=none;" vertex="1" parent="1">
          <mxGeometry x="350" y="678" width="40" height="30" as="geometry" />
        </mxCell>
        <mxCell id="CNzCqum64-IxNHnGtIyT-41" value="NO" style="text;html=1;align=center;verticalAlign=middle;resizable=0;points=[];autosize=1;strokeColor=none;fillColor=none;" vertex="1" parent="1">
          <mxGeometry x="350" y="798" width="40" height="30" as="geometry" />
        </mxCell>
        <mxCell id="CNzCqum64-IxNHnGtIyT-42" value="FIN" style="ellipse;whiteSpace=wrap;html=1;" vertex="1" parent="1">
          <mxGeometry x="570" y="610" width="80" height="80" as="geometry" />
        </mxCell>
        <mxCell id="CNzCqum64-IxNHnGtIyT-44" value="FIN" style="ellipse;whiteSpace=wrap;html=1;" vertex="1" parent="1">
          <mxGeometry x="570" y="730" width="80" height="80" as="geometry" />
        </mxCell>
        <mxCell id="CNzCqum64-IxNHnGtIyT-46" value="FIN" style="ellipse;whiteSpace=wrap;html=1;" vertex="1" parent="1">
          <mxGeometry x="560" y="840" width="80" height="80" as="geometry" />
        </mxCell>
        <mxCell id="CNzCqum64-IxNHnGtIyT-48" value="FIN" style="ellipse;whiteSpace=wrap;html=1;" vertex="1" parent="1">
          <mxGeometry x="310" y="960" width="80" height="80" as="geometry" />
        </mxCell>
        <mxCell id="CNzCqum64-IxNHnGtIyT-50" value="NO" style="text;html=1;align=center;verticalAlign=middle;resizable=0;points=[];autosize=1;strokeColor=none;fillColor=none;" vertex="1" parent="1">
          <mxGeometry x="350" y="918" width="40" height="30" as="geometry" />
        </mxCell>
      </root>
    </mxGraphModel>
  </diagram>
</mxfile>
